<svg width="10" height="12" viewBox="0 0 10 12" fill="none" xmlns="http://www.w3.org/2000/svg">
<path d="M1.616 11.984L1.456 11.824L1.36 11.92C1.18933 11.7493 1.104 11.6107 1.104 11.504C1.104 11.4187 1.06133 11.376 0.976 11.376L0.816 11.152L1.04 10.768V10.72L1.056 10.656C1.056 10.5813 1.04 10.544 1.008 10.544C0.933333 10.544 0.869333 10.48 0.816 10.352C0.88 10.224 0.981333 10.0427 1.12 9.808C1.26933 9.57333 1.42933 9.31733 1.6 9.04C1.77067 8.76267 1.936 8.50133 2.096 8.256C2.256 8.01067 2.384 7.824 2.48 7.696L3.072 6.896C3.52 6.27733 4.00533 5.66933 4.528 5.072L4.272 4.496L4.08 4.016C3.94133 3.664 3.81333 3.344 3.696 3.056C3.57867 2.768 3.48267 2.512 3.408 2.288C3.25867 1.81867 3.184 1.55733 3.184 1.504C3.20533 1.38667 3.22667 1.28533 3.248 1.2C3.28 1.11467 3.30133 1.05067 3.312 1.008H3.536C3.568 0.922666 3.59467 0.879999 3.616 0.879999C3.648 0.890666 3.69067 0.922667 3.744 0.976C3.808 1.01867 3.84533 1.04 3.856 1.04L4.048 0.848L4.176 1.008L4.24 0.624C4.368 0.624 4.44267 0.645333 4.464 0.688C4.47467 0.730666 4.51733 0.757333 4.592 0.768L4.656 0.783999H4.688L5.36 2.16L5.968 3.344C6.256 2.98133 6.51733 2.66133 6.752 2.384C6.98667 2.096 7.2 1.85067 7.392 1.648C7.59467 1.43467 7.792 1.216 7.984 0.992C8.18667 0.757333 8.4 0.506666 8.624 0.24L8.72 0.431999L8.8 0.367999L8.928 0.304C8.94933 0.314666 8.96 0.352 8.96 0.415999C8.96 0.479999 8.98667 0.527999 9.04 0.559999L9.104 0.592C9.168 0.592 9.26933 0.528 9.408 0.4C9.55733 0.271999 9.63733 0.207999 9.648 0.207999C9.66933 0.207999 9.68 0.218666 9.68 0.24C9.69067 0.271999 9.696 0.303999 9.696 0.335999C9.696 0.368 9.696 0.4 9.696 0.431999C9.696 0.506666 9.71733 0.570666 9.76 0.624C9.792 0.666666 9.808 0.725333 9.808 0.799999C9.808 0.981333 9.74933 1.14667 9.632 1.296C9.504 1.456 8.752 2.448 7.376 4.272L6.8 5.04L7.216 5.904C7.52533 6.53333 7.76 7.03467 7.92 7.408C8.09067 7.77067 8.19733 8.00533 8.24 8.112L8.352 8.4C8.512 8.816 8.592 9.05067 8.592 9.104C8.592 9.14667 8.57067 9.184 8.528 9.216C8.48533 9.23733 8.43733 9.248 8.384 9.248L8.336 9.232H8.304C8.26133 9.232 8.208 9.27467 8.144 9.36L8.08 9.712L7.856 9.648L7.84 9.696L7.792 9.936C7.62133 9.92533 7.488 9.89333 7.392 9.84C7.30667 9.78667 7.15733 9.632 6.944 9.376C6.83733 9.248 6.704 9.06133 6.544 8.816C6.39467 8.56 6.21333 8.25067 6 7.888L5.424 6.896L4.624 8.048C4.22933 8.624 3.86133 9.184 3.52 9.728C3.17867 10.272 2.88533 10.768 2.64 11.216C2.39467 11.6747 2.13867 11.92 1.872 11.952L1.68 11.856L1.616 11.984Z" fill="black"/>
</svg>
