<svg width="24" height="24" viewBox="0 0 24 24" fill="none" xmlns="http://www.w3.org/2000/svg">
<path d="M20.6257 2.62793H3.37573C2.96089 2.62793 2.62573 2.96309 2.62573 3.37793V20.6279C2.62573 21.0428 2.96089 21.3779 3.37573 21.3779H20.6257C21.0406 21.3779 21.3757 21.0428 21.3757 20.6279V3.37793C21.3757 2.96309 21.0406 2.62793 20.6257 2.62793ZM18.4601 8.10059H16.9625C15.7882 8.10059 15.5609 8.6584 15.5609 9.47871V11.2857H18.364L17.9984 14.1146H15.5609V21.3779H12.6382V14.117H10.1937V11.2857H12.6382V9.1998C12.6382 6.77871 14.1171 5.45918 16.2781 5.45918C17.314 5.45918 18.2023 5.53652 18.4625 5.57168V8.10059H18.4601Z" fill="#1D252A" fill-opacity="0.6"/>
</svg>
