<svg width="24" height="24" viewBox="0 0 24 24" fill="none" xmlns="http://www.w3.org/2000/svg">
<path d="M12 6.50529C8.95984 6.50529 6.50627 8.95886 6.50627 11.999C6.50627 15.0392 8.95984 17.4928 12 17.4928C15.0402 17.4928 17.4938 15.0392 17.4938 11.999C17.4938 8.95886 15.0402 6.50529 12 6.50529ZM12 15.5696C10.034 15.5696 8.42949 13.9651 8.42949 11.999C8.42949 10.033 10.034 8.4285 12 8.4285C13.9661 8.4285 15.5706 10.033 15.5706 11.999C15.5706 13.9651 13.9661 15.5696 12 15.5696ZM17.7188 4.99993C17.009 4.99993 16.4357 5.57315 16.4357 6.28297C16.4357 6.99279 17.009 7.566 17.7188 7.566C18.4286 7.566 19.0018 6.99547 19.0018 6.28297C19.002 6.11442 18.969 5.94748 18.9046 5.79172C18.8402 5.63596 18.7457 5.49444 18.6265 5.37525C18.5073 5.25607 18.3658 5.16157 18.21 5.09717C18.0543 5.03276 17.8873 4.99972 17.7188 4.99993ZM22.709 11.999C22.709 10.5205 22.7223 9.05529 22.6393 7.5794C22.5563 5.86511 22.1652 4.34368 20.9116 3.09011C19.6554 1.83386 18.1366 1.44547 16.4223 1.36243C14.9438 1.2794 13.4786 1.29279 12.0027 1.29279C10.5241 1.29279 9.05895 1.2794 7.58306 1.36243C5.86877 1.44547 4.34734 1.83654 3.09377 3.09011C1.83752 4.34636 1.44913 5.86511 1.36609 7.5794C1.28306 9.05797 1.29645 10.5231 1.29645 11.999C1.29645 13.4749 1.28306 14.9428 1.36609 16.4187C1.44913 18.133 1.8402 19.6544 3.09377 20.908C4.35002 22.1642 5.86877 22.5526 7.58306 22.6356C9.06163 22.7187 10.5268 22.7053 12.0027 22.7053C13.4813 22.7053 14.9465 22.7187 16.4223 22.6356C18.1366 22.5526 19.6581 22.1615 20.9116 20.908C22.1679 19.6517 22.5563 18.133 22.6393 16.4187C22.725 14.9428 22.709 13.4776 22.709 11.999ZM20.3518 18.3151C20.1563 18.8026 19.9206 19.1669 19.5429 19.5419C19.1652 19.9196 18.8036 20.1553 18.3161 20.3508C16.9072 20.9106 13.5616 20.7848 12 20.7848C10.4384 20.7848 7.0902 20.9106 5.68127 20.3535C5.19377 20.158 4.82949 19.9223 4.45449 19.5446C4.07681 19.1669 3.84109 18.8053 3.64556 18.3178C3.08842 16.9062 3.21431 13.5606 3.21431 11.999C3.21431 10.4374 3.08842 7.08922 3.64556 5.68029C3.84109 5.19279 4.07681 4.8285 4.45449 4.4535C4.83217 4.0785 5.19377 3.84011 5.68127 3.64457C7.0902 3.08743 10.4384 3.21332 12 3.21332C13.5616 3.21332 16.9098 3.08743 18.3188 3.64457C18.8063 3.84011 19.1706 4.07582 19.5456 4.4535C19.9232 4.83118 20.159 5.19279 20.3545 5.68029C20.9116 7.08922 20.7857 10.4374 20.7857 11.999C20.7857 13.5606 20.9116 16.9062 20.3518 18.3151Z" fill="#1D252A" fill-opacity="0.6"/>
</svg>
