<svg width="32" height="32" viewBox="0 0 32 32" fill="none" xmlns="http://www.w3.org/2000/svg">
<g clip-path="url(#clip0_107_188)">
<path d="M10.8 17.7895L14.5733 14.0162L5.21332 4.66954C3.13332 6.74954 3.13332 10.1229 5.21332 12.2162L10.8 17.7895ZM19.84 15.3762C21.88 16.3229 24.7467 15.6562 26.8667 13.5362C29.4133 10.9895 29.9067 7.33621 27.9467 5.37621C26 3.42954 22.3467 3.90954 19.7867 6.45621C17.6667 8.57621 17 11.4429 17.9467 13.4829L4.93332 26.4962L6.81332 28.3762L16 19.2162L25.1733 28.3895L27.0533 26.5095L17.88 17.3362L19.84 15.3762Z" fill="#FB9E73"/>
</g>
<defs>
<clipPath id="clip0_107_188">
<rect width="32" height="32" fill="white" transform="translate(0 0.00292969)"/>
</clipPath>
</defs>
</svg>
