<svg width="30" height="30" viewBox="0 0 30 30" fill="none" xmlns="http://www.w3.org/2000/svg">
<path d="M24.2297 11.8088C24.8644 11.8088 25.5342 11.9063 26.25 12.1252L22.2188 1.25391C21.5039 1.035 20.8327 0.9375 20.1994 0.9375C14.8847 0.9375 12.1144 7.80187 6.80016 7.80187C6.16547 7.80187 5.49562 7.70391 4.77984 7.48547L3.75 7.85297L11.4811 29.0625H12.7059L8.83359 18.4041C9.5475 18.623 10.1962 18.6731 10.83 18.6731C16.1456 18.6727 18.9155 11.8088 24.2297 11.8088ZM8.43469 17.3245L5.24578 8.57672C8.92172 9.49453 11.5153 7.24453 14.1066 5.08266C16.065 3.44906 17.8861 1.87313 20.1989 1.87313C20.6217 1.87313 21.0605 1.92562 21.5072 2.03062L24.7941 10.8942C24.6063 10.8794 24.418 10.8721 24.2297 10.8722C21.2278 10.8722 19.0392 12.7303 16.9228 14.527C14.9794 16.177 13.1433 17.7361 10.83 17.7361C10.4072 17.7366 9.33281 17.6625 8.43469 17.3245Z" fill="#9E3232"/>
</svg>
