<svg xmlns="http://www.w3.org/2000/svg" style="display: none;">
  <symbol id="cross" viewBox="0 0 14 14">
    <path d="M1.4 14L0 12.6L5.6 7L0 1.4L1.4 0L7 5.6L12.6 0L14 1.4L8.4 7L14 12.6L12.6 14L7 8.4L1.4 14Z" fill="currentColor"/>
  </symbol>
  <symbol id="facebook" viewBox="0 0 24 24">
    <path d="M20.6257 2.62793H3.37573C2.96089 2.62793 2.62573 2.96309 2.62573 3.37793V20.6279C2.62573 21.0428 2.96089 21.3779 3.37573 21.3779H20.6257C21.0406 21.3779 21.3757 21.0428 21.3757 20.6279V3.37793C21.3757 2.96309 21.0406 2.62793 20.6257 2.62793ZM18.4601 8.10059H16.9625C15.7882 8.10059 15.5609 8.6584 15.5609 9.47871V11.2857H18.364L17.9984 14.1146H15.5609V21.3779H12.6382V14.117H10.1937V11.2857H12.6382V9.1998C12.6382 6.77871 14.1171 5.45918 16.2781 5.45918C17.314 5.45918 18.2023 5.53652 18.4625 5.57168V8.10059H18.4601Z" fill="currentColor" fill-opacity="0.6"/>
  </symbol>
  <symbol id="filters" viewBox="0 0 24 24">
    <path d="M11 21V15H13V17H21V19H13V21H11ZM3 19V17H9V19H3ZM7 15V13H3V11H7V9H9V15H7ZM11 13V11H21V13H11ZM15 9V3H17V5H21V7H17V9H15ZM3 7V5H13V7H3Z" fill="currentColor"/>
  </symbol>
  <symbol id="info-circle" viewBox="0 0 24 24">
    <g clip-path="url(#clip0_277_376)">
<path d="M3 12C3 13.1819 3.23279 14.3522 3.68508 15.4442C4.13738 16.5361 4.80031 17.5282 5.63604 18.364C6.47177 19.1997 7.46392 19.8626 8.55585 20.3149C9.64778 20.7672 10.8181 21 12 21C13.1819 21 14.3522 20.7672 15.4442 20.3149C16.5361 19.8626 17.5282 19.1997 18.364 18.364C19.1997 17.5282 19.8626 16.5361 20.3149 15.4442C20.7672 14.3522 21 13.1819 21 12C21 9.61305 20.0518 7.32387 18.364 5.63604C16.6761 3.94821 14.3869 3 12 3C9.61305 3 7.32387 3.94821 5.63604 5.63604C3.94821 7.32387 3 9.61305 3 12Z" stroke="currentColor" stroke-width="2" stroke-linecap="round" stroke-linejoin="round"/>
<path d="M12 9H12.01" stroke="currentColor" stroke-width="2" stroke-linecap="round" stroke-linejoin="round"/>
<path d="M11 12H12V16H13" stroke="currentColor" stroke-width="2" stroke-linecap="round" stroke-linejoin="round"/>
</g>
<defs>
<clipPath id="clip0_277_376">
<rect width="24" height="24" fill="none"/>
</clipPath>
</defs>
  </symbol>
  <symbol id="instagram" viewBox="0 0 24 24">
    <path d="M12 6.50529C8.95984 6.50529 6.50627 8.95886 6.50627 11.999C6.50627 15.0392 8.95984 17.4928 12 17.4928C15.0402 17.4928 17.4938 15.0392 17.4938 11.999C17.4938 8.95886 15.0402 6.50529 12 6.50529ZM12 15.5696C10.034 15.5696 8.42949 13.9651 8.42949 11.999C8.42949 10.033 10.034 8.4285 12 8.4285C13.9661 8.4285 15.5706 10.033 15.5706 11.999C15.5706 13.9651 13.9661 15.5696 12 15.5696ZM17.7188 4.99993C17.009 4.99993 16.4357 5.57315 16.4357 6.28297C16.4357 6.99279 17.009 7.566 17.7188 7.566C18.4286 7.566 19.0018 6.99547 19.0018 6.28297C19.002 6.11442 18.969 5.94748 18.9046 5.79172C18.8402 5.63596 18.7457 5.49444 18.6265 5.37525C18.5073 5.25607 18.3658 5.16157 18.21 5.09717C18.0543 5.03276 17.8873 4.99972 17.7188 4.99993ZM22.709 11.999C22.709 10.5205 22.7223 9.05529 22.6393 7.5794C22.5563 5.86511 22.1652 4.34368 20.9116 3.09011C19.6554 1.83386 18.1366 1.44547 16.4223 1.36243C14.9438 1.2794 13.4786 1.29279 12.0027 1.29279C10.5241 1.29279 9.05895 1.2794 7.58306 1.36243C5.86877 1.44547 4.34734 1.83654 3.09377 3.09011C1.83752 4.34636 1.44913 5.86511 1.36609 7.5794C1.28306 9.05797 1.29645 10.5231 1.29645 11.999C1.29645 13.4749 1.28306 14.9428 1.36609 16.4187C1.44913 18.133 1.8402 19.6544 3.09377 20.908C4.35002 22.1642 5.86877 22.5526 7.58306 22.6356C9.06163 22.7187 10.5268 22.7053 12.0027 22.7053C13.4813 22.7053 14.9465 22.7187 16.4223 22.6356C18.1366 22.5526 19.6581 22.1615 20.9116 20.908C22.1679 19.6517 22.5563 18.133 22.6393 16.4187C22.725 14.9428 22.709 13.4776 22.709 11.999ZM20.3518 18.3151C20.1563 18.8026 19.9206 19.1669 19.5429 19.5419C19.1652 19.9196 18.8036 20.1553 18.3161 20.3508C16.9072 20.9106 13.5616 20.7848 12 20.7848C10.4384 20.7848 7.0902 20.9106 5.68127 20.3535C5.19377 20.158 4.82949 19.9223 4.45449 19.5446C4.07681 19.1669 3.84109 18.8053 3.64556 18.3178C3.08842 16.9062 3.21431 13.5606 3.21431 11.999C3.21431 10.4374 3.08842 7.08922 3.64556 5.68029C3.84109 5.19279 4.07681 4.8285 4.45449 4.4535C4.83217 4.0785 5.19377 3.84011 5.68127 3.64457C7.0902 3.08743 10.4384 3.21332 12 3.21332C13.5616 3.21332 16.9098 3.08743 18.3188 3.64457C18.8063 3.84011 19.1706 4.07582 19.5456 4.4535C19.9232 4.83118 20.159 5.19279 20.3545 5.68029C20.9116 7.08922 20.7857 10.4374 20.7857 11.999C20.7857 13.5606 20.9116 16.9062 20.3518 18.3151Z" fill="currentColor" fill-opacity="0.6"/>
  </symbol>
  <symbol id="logomark" viewBox="0 0 32 32">
    <g clip-path="url(#clip0_107_188)">
<path d="M10.8 17.7895L14.5733 14.0162L5.21332 4.66954C3.13332 6.74954 3.13332 10.1229 5.21332 12.2162L10.8 17.7895ZM19.84 15.3762C21.88 16.3229 24.7467 15.6562 26.8667 13.5362C29.4133 10.9895 29.9067 7.33621 27.9467 5.37621C26 3.42954 22.3467 3.90954 19.7867 6.45621C17.6667 8.57621 17 11.4429 17.9467 13.4829L4.93332 26.4962L6.81332 28.3762L16 19.2162L25.1733 28.3895L27.0533 26.5095L17.88 17.3362L19.84 15.3762Z" fill="#FB9E73"/>
</g>
<defs>
<clipPath id="clip0_107_188">
<rect width="32" height="32" fill="white" transform="translate(0 0.00292969)"/>
</clipPath>
</defs>
  </symbol>
  <symbol id="report" viewBox="0 0 30 30">
    <path d="M24.2297 11.8088C24.8644 11.8088 25.5342 11.9063 26.25 12.1252L22.2188 1.25391C21.5039 1.035 20.8327 0.9375 20.1994 0.9375C14.8847 0.9375 12.1144 7.80187 6.80016 7.80187C6.16547 7.80187 5.49562 7.70391 4.77984 7.48547L3.75 7.85297L11.4811 29.0625H12.7059L8.83359 18.4041C9.5475 18.623 10.1962 18.6731 10.83 18.6731C16.1456 18.6727 18.9155 11.8088 24.2297 11.8088ZM8.43469 17.3245L5.24578 8.57672C8.92172 9.49453 11.5153 7.24453 14.1066 5.08266C16.065 3.44906 17.8861 1.87313 20.1989 1.87313C20.6217 1.87313 21.0605 1.92562 21.5072 2.03062L24.7941 10.8942C24.6063 10.8794 24.418 10.8721 24.2297 10.8722C21.2278 10.8722 19.0392 12.7303 16.9228 14.527C14.9794 16.177 13.1433 17.7361 10.83 17.7361C10.4072 17.7366 9.33281 17.6625 8.43469 17.3245Z" fill="#9E3232"/>
  </symbol>
  <symbol id="search" viewBox="0 0 24 24">
    <path d="M19.6 21L13.3 14.7C12.8 15.1 12.225 15.4167 11.575 15.65C10.925 15.8833 10.2333 16 9.5 16C7.68333 16 6.14583 15.3708 4.8875 14.1125C3.62917 12.8542 3 11.3167 3 9.5C3 7.68333 3.62917 6.14583 4.8875 4.8875C6.14583 3.62917 7.68333 3 9.5 3C11.3167 3 12.8542 3.62917 14.1125 4.8875C15.3708 6.14583 16 7.68333 16 9.5C16 10.2333 15.8833 10.925 15.65 11.575C15.4167 12.225 15.1 12.8 14.7 13.3L21 19.6L19.6 21ZM9.5 14C10.75 14 11.8125 13.5625 12.6875 12.6875C13.5625 11.8125 14 10.75 14 9.5C14 8.25 13.5625 7.1875 12.6875 6.3125C11.8125 5.4375 10.75 5 9.5 5C8.25 5 7.1875 5.4375 6.3125 6.3125C5.4375 7.1875 5 8.25 5 9.5C5 10.75 5.4375 11.8125 6.3125 12.6875C7.1875 13.5625 8.25 14 9.5 14Z" fill="currentColor"/>
  </symbol>
  <symbol id="sort" viewBox="0 0 24 24">
    <path d="M3 18V16H9V18H3ZM3 13V11H15V13H3ZM3 8V6H21V8H3Z" fill="currentColor"/>
  </symbol>
  <symbol id="twitter" viewBox="0 0 24 24">
    <path d="M13.6761 10.6616L20.2291 3.20215H18.6768L12.9844 9.67778L8.44123 3.20215H3.19995L10.0716 12.9954L3.19995 20.8168H4.75227L10.7597 13.9769L15.5587 20.8168H20.8M5.31254 4.3485H7.69734L18.6756 19.7268H16.2902" fill="currentColor" fill-opacity="0.6"/>
  </symbol>
</svg>
